<?xml version="1.0" encoding="UTF-8" standalone="no"?>
<!DOCTYPE svg PUBLIC "-//W3C//DTD SVG 1.1//EN" "http://www.w3.org/Graphics/SVG/1.1/DTD/svg11.dtd">
<svg width="100%" height="100%" viewBox="0 0 4000 4000" version="1.1" xmlns="http://www.w3.org/2000/svg" xmlns:xlink="http://www.w3.org/1999/xlink" xml:space="preserve" xmlns:serif="http://www.serif.com/" style="fill-rule:evenodd;clip-rule:evenodd;stroke-linejoin:round;stroke-miterlimit:2;">
    <g transform="matrix(11.013063,0,0,11.013063,-2913.671003,-284.329628)">
        <path d="M626.862,284.673L626.844,286.086L623.762,286.958L621.502,290.134L619.929,289.794L616.565,291.681L615.457,290.264L616.674,290.003L614.122,287.005L611.434,286.549L606.379,289.693L603.257,288.003L601.007,288.14L600.192,286.994L596.029,287.431L594.912,285.643L594.473,283.361L595.243,282.443L595.069,279.932L596.11,272.833L598.781,269.25L599.087,268.156L598.435,267.782L586.537,269.285L574.395,274.687L557.49,273.434L547.118,276.204L544.628,275.078L535.537,281.166L531.627,282.884L530.742,282.422L522.096,291.355L521.801,290.005L519.107,289.614L516.801,287.188L515.448,287.675L513.866,289.747L511.603,290.011L508.455,287.32L507.351,284.777L505.504,283.975L499.781,286.422L489.423,286.105L488.11,283.717L488.394,280.513L487.766,280.513L484.258,278.348L484.809,276.603L479.729,270.978L479.671,267.353L476.553,265.614L475.822,264.284L474.514,264.341L473.323,263.719L472.706,261.918L469.263,260.371L459.329,258.908L457.839,257.756L452.546,259.01L449.496,262.056L450.232,259.14L455.217,255.426L452.391,255.696L445.785,261.237L443.67,261.147L443.518,263.238L441.385,266.443L440.207,266.949L440.153,265.753L439.446,261.707L441.357,255.374L441.192,253.233L439.368,250.503L438.138,250.424L438.272,245.403L433.36,243.591L432.275,241.484L432.767,238.607L431.639,237.381L427.256,241.961L425.11,242.801L423.958,244.291L421.708,245.055L419.685,248.898L417.903,251.191L411.747,252.854L410.117,252.444L405.978,256.374L397.829,261.128L388.047,262.544L385.469,261.649L379.049,262.288L368.907,271.371L356.938,275.118L354.859,274.838L350.899,277.661L348.869,278.014L347.125,276.208L343.363,275.256L340.938,272.897L339.899,273.289L339.951,272.168L336.365,268.435L337.603,270.928L335.768,270.625L337.783,272.137L335.584,271.78L334.065,273.248L327.316,275.347L328.418,271.231L330.886,268.993L330.31,264.462L334.608,259.615L335.058,256.364L336.659,255.967L335.022,253.127L333.221,252.506L332.983,251.227L331.37,251.124L328.714,252.844L326.588,252.253L320.167,257.25L319.333,257.534L318.48,257.381L316.644,257.561L316.058,256.696L307.069,261.797L306.317,261.285L285.585,266.859L281.473,266.803L279.274,266.446L275.315,262.112L274.047,262.865L272.458,265L271.252,265.31L269.327,268.215L265.473,266.754L269.118,266.81L269.408,264.009L270.32,263.283L272.628,263.361L275.237,258.983L288.19,250.866L293.493,246.107L297.401,245.177L299.64,241.275L304.864,238.824L313.676,230.616L321.445,221.303L338.345,208.625L349.581,202.646L370.173,197.653L376.184,194.125L380.972,192.627L387.51,188.832L386.976,187.619L389.569,188.209L389.739,186.57L391.395,186.581L395.495,185.348L396.969,184.005L399.113,182.57L399.007,181.884L397.61,181.546L398.27,179.99L400.244,179.567L402.134,179.956L403.354,179.519L403.332,178.021L404.381,177.518L405.261,175.55L404.971,174.153L406.483,173.376L406.687,172.03L406.397,170.633L406.613,169.787L406.332,168.938L407.234,166.12L408.171,166.088L408.906,166.292L409.708,165.684L409.476,164.357L409.706,163.383L406.981,162.04L407.152,161.012L408.726,159.486L411.6,155.811L413.921,154.362L415.522,154.592L420.24,153.456L421.228,151.692L422.974,151.133L423.974,151.735L425.562,150.227L428.029,149.228L429.044,149.526L429.019,150.392L429.455,151L427.322,154.817L426.175,156.258L425.991,158.041L424.459,160.247L424.679,162.94L423.988,162.933L423.198,162.175L421.932,164.151L420.944,166.542L422.075,166.337L422.546,165.518L423.682,165.266L426.776,164.283L429.045,164.582L430.16,163.443L431.762,159.941L432.408,157.274L432.6,154.8L434.149,154.285L435.032,151.819L435.139,150.785L434.586,148.974L434.882,147.203L435.313,146.621L436.786,146.837L438.635,145.292L438.967,141.465L439.409,140.771L438.904,139.593L438.602,137.696L440.387,134.277L441.858,132.194L442.82,131.908L444.886,131.687L447.13,132.853L447.845,133.249L449.001,134.671L449.131,136.985L449.79,137.921L449.832,139.229L448.178,143.24L447.672,143.927L446.59,144.121L444.988,145.146L443.47,147.224L441.222,150.289L439.787,151.572L438.596,151.577L437.351,152.88L437.179,155.162L437.634,155.579L437.412,157.101L437.663,160.118L439.336,160.115L439.407,159.43L440.002,159.122L440.022,158.304L440.35,157.469L441.2,157.187L441.126,153.078L443.094,150.853L444.402,150.184L445.102,151.816L445.217,152.568L445.895,152.703L447.121,150.337L448.072,149.695L448.588,150.617L449.696,150.169L448.99,148.6L447.989,147.386L447.571,145.525L448.41,144.567L449.788,145.707L450.001,146.598L449.881,147.759L450.176,148.481L452.328,146.34L453.611,146.537L453.585,147.403L452.431,148.458L452.517,149.335L454.18,148.96L455.016,146.795L456.082,145.04L457.524,144.32L457.909,143.556L458.374,140.934L458.248,137.8L458.489,136.088L455.577,133.615L452.815,132.01L452.865,131.532L452.545,131.049L453.485,129.731L453.607,128.553L453.369,127.29L452.99,126.752L451.591,123.486L452.622,123.159L453.586,125.189L454.276,124.585L455.135,124.674L455.855,125.488L457.615,123.563L459.519,123.198L462.583,123.579L462.845,124.781L463.329,125.394L466.213,126.433L467.617,126.079L468.329,126.973L469.98,128.576L471.897,128.083L476.489,129.25L477.598,130.041L478.387,130.814L481.964,131.056L482.604,131.556L482.798,132.638L483.24,133.183L485.567,132.925L487.668,133.143L488.613,134.109L488.652,134.981L489.967,135.488L490.657,136.122L493.08,136.18L493.844,137.192L493.703,137.934L495.161,138.76L498.909,138.602L499.266,137.641L501.618,138.383L504.598,137.261L506.97,137.185L506.753,135.554L508.456,135.424L508.285,136.452L508.978,137.521L510.843,138.776L511.862,139.187L514.111,139.677L515.998,137.621L520.323,135.463L521.006,136.161L522.411,136.419L523.654,136.999L523.299,139.809L523.849,140.557L526.78,140.99L527.561,140.749L527.674,139.65L529.2,138.747L530.514,138.015L531.86,138.218L532.644,139.04L533.593,139.508L534.11,141.186L533.438,141.615L533.516,142.733L533.925,143.596L535.173,145.832L536.434,146.397L536.345,147.256L536.197,148.062L538.531,148.979L537.955,150.351L539.642,150.831L539.173,152.407L539.335,153.791L541.244,161.147L541.175,161.815L542.117,162.347L542.717,163.23L542.432,164.745L545.241,169.459L545.518,170.356L545.455,171.588L545.042,171.996L545.256,172.887L546.841,174.354L546.59,175.695L547.787,178.425L550.959,180.877L551.023,182.122L550.141,182.722L552.209,183.87L555.438,186.247L557.346,189.565L560.513,190.826L562.642,192.478L565.252,193.054L567.75,193.007L574.258,193.858L577.555,193.701L579.391,192.283L581.648,191.455L586.309,191.503L593.318,190.604L595.915,190.069L598.255,190.312L599.152,191.273L599.709,191.331L600.826,190.642L602.446,191.309L603.089,192.244L603.292,193.391L602.77,194.704L600.103,197.163L598.593,199L601.248,201.64L600.063,202.82L599.243,204.843L598.532,205.654L597.051,205.5L595.782,207.042L597.227,208.623L596.963,209.464L595.384,213.837L597.5,215.616L598.34,216.508L598.559,218.589L599.957,219.539L602.207,219.401L605.759,222.375L607.19,224.711L609.158,225.59L610.078,228.05L613.524,230.337L614.262,231.604L614.714,234.386L614.284,235.58L612.409,237.38L610.333,240.028L608.36,244.167L609.816,245.637L609.043,247.664L607.177,249.53L606.333,252.241L606.271,254.712L608.532,256.33L610.168,255.438L611.385,255.805L612.33,258.026L613.094,259.649L614.376,260.474L615.131,259.86L614.612,258.198L615.087,257.186L617.272,257.669L619.578,257.152L622.093,257.413L625.438,260.059L626.272,261.014L625.727,262.083L624.148,264.59L622.751,264.88L621.917,263.925L621.62,263.219L620.481,263.342L618.256,264.479L617.231,265.37L618.044,267.143L617.386,268.684L617.341,269.741L616.413,270.32L616.017,272.273L616.503,273.016L618.286,273.2L619.089,272.592L619.567,269.842L620.321,268.618L622.45,270.27L623.421,271.609L623.371,273.341L622.191,274.473L620.781,274.89L618.732,276.657L616.908,279.83L615.57,283.117L617.884,285.464L618.68,285.546L618.781,287.053L619.784,288.09L621.006,287.782L621.557,286.038L624.37,284.656L626.862,284.673ZM336.227,257.727L335.61,259.467L336.472,259.556L337.435,257.479L337.128,256.825L336.227,257.727ZM341.083,254.685L344.563,254.112L346.087,255.016L347.225,251.837L343.413,252.002L341.526,252.802L341.083,254.685ZM459.039,126.627L460.246,128.183L462.44,129.219L462.15,126.016L460.408,126.022L459.039,126.627ZM338.198,255.505L338.268,256.632L338.975,257.016L339.826,256.607L339.989,255.628L338.198,255.505ZM474.59,133.836L474.626,134.055L474.74,134.785L475.723,137.313L474.419,138.484L474.89,139.342L476.111,138.97L476.2,139.912L479.797,139.414L481.024,138.981L479.654,136.6L478.346,135.407L477.986,134.686L477.489,134.075L476.865,132.89L475.281,133.162L474.59,133.836ZM411.052,170.115L410.925,171.346L411.322,172.321L412.568,171.703L413.573,172.803L414.307,172.319L415.62,172.268L416.903,171.281L417.283,170.014L416.42,168.743L414.394,169.093L411.052,170.115ZM336.545,252.846L337.562,254.444L339.485,253.897L338.374,251.417L336.484,251.036L336.571,252.6L336.545,252.846ZM325.843,249.872L326.692,250.083L326.635,250.638L328.296,250.81L328.006,249.411L328.365,248.951L327.871,247.717L327.306,248.965L325.988,249.078L325.843,249.872ZM338.231,249.786L338.944,250.108L340.364,249.011L339.042,248.563L338.284,248.672L338.231,249.786ZM335.256,248.482L336.442,249.04L336.932,247.91L335.81,246.736L335.163,246.979L335.256,248.482ZM338.337,247.558L339.536,247.992L339.923,246.664L341.292,246.059L341.394,245.075L339.218,245.658L338.705,246.414L338.337,247.558ZM339.536,251.601L339.958,252.329L341,251.876L341.433,251.299L341.37,250.11L340.175,250.236L340.024,251.091L339.536,251.601ZM519.608,283.563L520.829,288.604L522.042,288.294L523.222,288.914L523.893,287.242L522.448,286.781L523.117,283.926L522.323,281.978L521.067,282.097L519.608,283.563ZM343.984,247.085L344.727,249.525L345.139,249.755L345.687,248.069L345.135,247.39L345.185,245.716L343.888,246.826L343.984,247.085ZM434.035,236.506L433.386,240.979L433.926,242.963L438.715,244.767L439.554,246.284L440.224,246.415L442.411,244.527L442.347,243.338L442.01,242.993L440.291,243.375L443.727,239.624L443.302,244.931L440.294,247.542L439.556,249.27L442.361,253.417L444.521,251.774L445.071,247.664L447.813,245.833L448.466,243.723L450.228,243.533L451.418,242.847L450.93,239.749L454.937,238.297L458.76,233.219L460.743,233.3L464.228,231.483L464.264,229.932L463.504,228.858L463.205,228.143L466.313,226.972L472.01,227.811L472.902,226.41L474.088,226.969L474.871,226.614L474.973,225.63L473.747,224.259L473.24,223.149L469.766,221.856L460.981,221.381L452.524,222.559L451.218,224.352L444.93,226.811L442.078,229.127L438.995,233.66L434.035,236.506ZM408.881,192.285L410.112,192.412L410.029,193.212L408.726,194.383L408.443,195.909L409.349,197.372L411.299,197.76L418.649,194.665L421.6,194.41L422.219,193.23L420.053,193.131L418.401,193.457L418.091,192.243L418.518,191.728L425.989,187.463L427.999,186.675L428.903,186.956L431.639,186.368L435.815,183.877L437.077,182.515L436.797,181.615L435.861,181.643L435.938,180.904L437.098,179.905L439.613,179.045L439.913,177.957L440.267,176.936L442.057,175.877L441.505,175.198L439.213,175.706L437.994,177.26L437.237,177.368L434.354,177.567L433.119,178.684L432.253,179.838L429.808,180.02L427.626,182.469L425.584,183.563L424.975,183.439L424.101,183.472L412.232,189.957L410.173,190.614L408.881,192.285ZM349.631,250.22L352.54,247.971L353.069,244.667L351.296,244.358L350.411,245.698L349.631,250.22ZM555.894,202.908L553.983,205.136L553.956,206.004L554.407,207.046L562.615,207.087L565.057,207.527L569.881,204.792L569.508,204.194L567.905,202.846L563.863,202.24L559.383,201.652L558.058,201.826L555.894,202.908ZM618.322,259.014L617.628,260.311L618.207,261.926L618.92,262.249L619.769,261.278L620.58,261.239L621.593,260.472L622.535,260.384L621.178,259.683L619.515,259.511L619.61,258.588L618.878,258.45L618.322,259.014ZM473.559,132.983L472.593,132.696L469.951,132.982L468.254,131.936L466.298,131.609L464.155,131.884L462.321,133.375L459.929,134.246L460.139,135.823L459.986,137.3L460.586,139.913L460.049,142.096L460.73,142.727L461.433,142.55L461.936,143.1L462.67,142.617L462.681,141.312L462.778,139.767L464.043,138.964L465.449,138.612L467.826,138.485L469.755,139.68L470.943,139.617L471.845,138.715L471.953,137.668L471.916,136.234L473.039,137.408L473.692,137.102L473.783,135.619L474.121,134.161L473.559,132.983ZM504.859,145.493L504.4,146.316L504.787,146.792L507.044,147.213L507.14,148.093L508.008,148.122L509.101,147.176L509.333,146.144L508.838,144.91L507.726,144.235L505.536,145.563L504.859,145.493ZM346.836,257.396L347.565,258.155L348.288,257.795L348.775,257.285L349.788,256.519L349.858,255.842L347.43,256.461L346.836,257.396ZM334.577,264.648L337.353,263.069L340.548,262.84L340.095,260.616L344.482,259.702L342.956,257.616L341.189,257.868L337.322,261.572L334.99,262.451L334.577,264.648Z" style="fill:#f36a85;"/>
    </g>
</svg>
